<?xml version="1.0" encoding="utf-8" standalone="no"?>
<!DOCTYPE svg PUBLIC "-//W3C//DTD SVG 1.1//EN"
  "http://www.w3.org/Graphics/SVG/1.1/DTD/svg11.dtd">
<!-- Created with matplotlib (https://matplotlib.org/) -->
<svg height="576pt" version="1.1" viewBox="0 0 576 576" width="576pt" xmlns="http://www.w3.org/2000/svg" xmlns:xlink="http://www.w3.org/1999/xlink">
 <metadata>
  <rdf:RDF xmlns:cc="http://creativecommons.org/ns#" xmlns:dc="http://purl.org/dc/elements/1.1/" xmlns:rdf="http://www.w3.org/1999/02/22-rdf-syntax-ns#">
   <cc:Work>
    <dc:type rdf:resource="http://purl.org/dc/dcmitype/StillImage"/>
    <dc:date>2022-01-15T22:44:23.688998</dc:date>
    <dc:format>image/svg+xml</dc:format>
    <dc:creator>
     <cc:Agent>
      <dc:title>Matplotlib v3.3.2, https://matplotlib.org/</dc:title>
     </cc:Agent>
    </dc:creator>
   </cc:Work>
  </rdf:RDF>
 </metadata>
 <defs>
  <style type="text/css">*{stroke-linecap:butt;stroke-linejoin:round;}</style>
 </defs>
 <g id="figure_1">
  <g id="patch_1">
   <path d="M 0 576 
L 576 576 
L 576 0 
L 0 0 
z
" style="fill:#ffffff;"/>
  </g>
  <g id="axes_1">
   <g id="patch_2">
    <path d="M 12.96 544.88 
L 549.72 544.88 
L 549.72 82.6224 
L 12.96 82.6224 
z
" style="fill:#ffffff;"/>
   </g>
   <g id="PolyCollection_1">
    <path clip-path="url(#p8de6a2e26a)" d="M 12.96 391.38054 
L 12.96 544.88 
L 22.719273 544.88 
L 32.478545 544.88 
L 42.237818 544.88 
L 51.997091 544.88 
L 61.756364 544.88 
L 71.515636 544.88 
L 81.274909 544.88 
L 91.034182 544.88 
L 100.793455 544.88 
L 110.552727 544.88 
L 120.312 544.88 
L 130.071273 544.88 
L 139.830545 544.88 
L 149.589818 544.88 
L 159.349091 544.88 
L 169.108364 544.88 
L 178.867636 544.88 
L 188.626909 544.88 
L 198.386182 544.88 
L 208.145455 544.88 
L 217.904727 544.88 
L 227.664 544.88 
L 237.423273 544.88 
L 247.182545 544.88 
L 256.941818 544.88 
L 266.701091 544.88 
L 276.460364 544.88 
L 286.219636 544.88 
L 295.978909 544.88 
L 305.738182 544.88 
L 315.497455 544.88 
L 325.256727 544.88 
L 335.016 544.88 
L 344.775273 544.88 
L 354.534545 544.88 
L 364.293818 544.88 
L 374.053091 544.88 
L 383.812364 544.88 
L 393.571636 544.88 
L 403.330909 544.88 
L 413.090182 544.88 
L 422.849455 544.88 
L 432.608727 544.88 
L 442.368 544.88 
L 452.127273 544.88 
L 461.886545 544.88 
L 471.645818 544.88 
L 481.405091 544.88 
L 491.164364 544.88 
L 500.923636 544.88 
L 510.682909 544.88 
L 520.442182 544.88 
L 530.201455 544.88 
L 539.960727 544.88 
L 549.72 544.88 
L 549.72 416.68162 
L 549.72 416.68162 
L 539.960727 421.849325 
L 530.201455 430.239467 
L 520.442182 439.992873 
L 510.682909 444.021894 
L 500.923636 441.107671 
L 491.164364 442.779887 
L 481.405091 450.618209 
L 471.645818 457.747057 
L 461.886545 462.165259 
L 452.127273 463.846842 
L 442.368 463.996799 
L 432.608727 467.133829 
L 422.849455 463.402919 
L 413.090182 462.668652 
L 403.330909 461.489659 
L 393.571636 457.071892 
L 383.812364 452.083942 
L 374.053091 447.959462 
L 364.293818 449.776813 
L 354.534545 449.734095 
L 344.775273 446.721702 
L 335.016 445.664895 
L 325.256727 442.289536 
L 315.497455 441.046328 
L 305.738182 440.798959 
L 295.978909 439.391836 
L 286.219636 438.625406 
L 276.460364 437.665027 
L 266.701091 435.72942 
L 256.941818 439.008197 
L 247.182545 435.479061 
L 237.423273 428.503011 
L 227.664 422.554571 
L 217.904727 421.712323 
L 208.145455 410.833266 
L 198.386182 412.9846 
L 188.626909 414.57531 
L 178.867636 417.693374 
L 169.108364 427.269886 
L 159.349091 436.467669 
L 149.589818 445.599176 
L 139.830545 444.891869 
L 130.071273 449.455391 
L 120.312 449.185446 
L 110.552727 438.906734 
L 100.793455 440.023637 
L 91.034182 435.990446 
L 81.274909 426.251168 
L 71.515636 422.485028 
L 61.756364 415.120561 
L 51.997091 408.855177 
L 42.237818 402.02798 
L 32.478545 395.342935 
L 22.719273 394.805788 
L 12.96 391.38054 
z
" style="fill:#001219;"/>
   </g>
   <g id="PolyCollection_2">
    <path clip-path="url(#p8de6a2e26a)" d="M 12.96 326.766451 
L 12.96 391.38054 
L 22.719273 394.805788 
L 32.478545 395.342935 
L 42.237818 402.02798 
L 51.997091 408.855177 
L 61.756364 415.120561 
L 71.515636 422.485028 
L 81.274909 426.251168 
L 91.034182 435.990446 
L 100.793455 440.023637 
L 110.552727 438.906734 
L 120.312 449.185446 
L 130.071273 449.455391 
L 139.830545 444.891869 
L 149.589818 445.599176 
L 159.349091 436.467669 
L 169.108364 427.269886 
L 178.867636 417.693374 
L 188.626909 414.57531 
L 198.386182 412.9846 
L 208.145455 410.833266 
L 217.904727 421.712323 
L 227.664 422.554571 
L 237.423273 428.503011 
L 247.182545 435.479061 
L 256.941818 439.008197 
L 266.701091 435.72942 
L 276.460364 437.665027 
L 286.219636 438.625406 
L 295.978909 439.391836 
L 305.738182 440.798959 
L 315.497455 441.046328 
L 325.256727 442.289536 
L 335.016 445.664895 
L 344.775273 446.721702 
L 354.534545 449.734095 
L 364.293818 449.776813 
L 374.053091 447.959462 
L 383.812364 452.083942 
L 393.571636 457.071892 
L 403.330909 461.489659 
L 413.090182 462.668652 
L 422.849455 463.402919 
L 432.608727 467.133829 
L 442.368 463.996799 
L 452.127273 463.846842 
L 461.886545 462.165259 
L 471.645818 457.747057 
L 481.405091 450.618209 
L 491.164364 442.779887 
L 500.923636 441.107671 
L 510.682909 444.021894 
L 520.442182 439.992873 
L 530.201455 430.239467 
L 539.960727 421.849325 
L 549.72 416.68162 
L 549.72 384.845952 
L 549.72 384.845952 
L 539.960727 390.509656 
L 530.201455 397.430791 
L 520.442182 402.80033 
L 510.682909 405.546201 
L 500.923636 400.371663 
L 491.164364 401.298839 
L 481.405091 409.542836 
L 471.645818 416.574225 
L 461.886545 419.186823 
L 452.127273 420.510192 
L 442.368 419.567574 
L 432.608727 423.249437 
L 422.849455 419.539845 
L 413.090182 417.794508 
L 403.330909 416.852981 
L 393.571636 412.622138 
L 383.812364 408.165147 
L 374.053091 401.47892 
L 364.293818 403.376046 
L 354.534545 403.914479 
L 344.775273 399.005066 
L 335.016 397.56145 
L 325.256727 395.579051 
L 315.497455 395.505893 
L 305.738182 397.14671 
L 295.978909 398.544398 
L 286.219636 400.031889 
L 276.460364 400.645604 
L 266.701091 399.119766 
L 256.941818 404.488612 
L 247.182545 402.958465 
L 237.423273 395.824633 
L 227.664 389.938885 
L 217.904727 388.543469 
L 208.145455 378.2434 
L 198.386182 380.760058 
L 188.626909 383.496438 
L 178.867636 386.984554 
L 169.108364 396.727661 
L 159.349091 407.581869 
L 149.589818 417.068187 
L 139.830545 417.254598 
L 130.071273 421.791678 
L 120.312 420.550642 
L 110.552727 407.686464 
L 100.793455 405.071516 
L 91.034182 397.580527 
L 81.274909 386.819366 
L 71.515636 378.771215 
L 61.756364 367.854338 
L 51.997091 358.074016 
L 42.237818 347.35348 
L 32.478545 337.100439 
L 22.719273 336.054903 
L 12.96 326.766451 
z
" style="fill:#005f73;"/>
   </g>
   <g id="PolyCollection_3">
    <path clip-path="url(#p8de6a2e26a)" d="M 12.96 254.34023 
L 12.96 326.766451 
L 22.719273 336.054903 
L 32.478545 337.100439 
L 42.237818 347.35348 
L 51.997091 358.074016 
L 61.756364 367.854338 
L 71.515636 378.771215 
L 81.274909 386.819366 
L 91.034182 397.580527 
L 100.793455 405.071516 
L 110.552727 407.686464 
L 120.312 420.550642 
L 130.071273 421.791678 
L 139.830545 417.254598 
L 149.589818 417.068187 
L 159.349091 407.581869 
L 169.108364 396.727661 
L 178.867636 386.984554 
L 188.626909 383.496438 
L 198.386182 380.760058 
L 208.145455 378.2434 
L 217.904727 388.543469 
L 227.664 389.938885 
L 237.423273 395.824633 
L 247.182545 402.958465 
L 256.941818 404.488612 
L 266.701091 399.119766 
L 276.460364 400.645604 
L 286.219636 400.031889 
L 295.978909 398.544398 
L 305.738182 397.14671 
L 315.497455 395.505893 
L 325.256727 395.579051 
L 335.016 397.56145 
L 344.775273 399.005066 
L 354.534545 403.914479 
L 364.293818 403.376046 
L 374.053091 401.47892 
L 383.812364 408.165147 
L 393.571636 412.622138 
L 403.330909 416.852981 
L 413.090182 417.794508 
L 422.849455 419.539845 
L 432.608727 423.249437 
L 442.368 419.567574 
L 452.127273 420.510192 
L 461.886545 419.186823 
L 471.645818 416.574225 
L 481.405091 409.542836 
L 491.164364 401.298839 
L 500.923636 400.371663 
L 510.682909 405.546201 
L 520.442182 402.80033 
L 530.201455 397.430791 
L 539.960727 390.509656 
L 549.72 384.845952 
L 549.72 311.287628 
L 549.72 311.287628 
L 539.960727 316.139802 
L 530.201455 323.399917 
L 520.442182 328.134741 
L 510.682909 331.267972 
L 500.923636 326.870421 
L 491.164364 326.278888 
L 481.405091 332.98949 
L 471.645818 340.799883 
L 461.886545 341.329511 
L 452.127273 341.928506 
L 442.368 340.530829 
L 432.608727 348.085743 
L 422.849455 343.612176 
L 413.090182 344.683804 
L 403.330909 345.751871 
L 393.571636 342.834535 
L 383.812364 340.331733 
L 374.053091 336.674715 
L 364.293818 344.847341 
L 354.534545 349.478857 
L 344.775273 345.759496 
L 335.016 346.785591 
L 325.256727 343.525089 
L 315.497455 343.452288 
L 305.738182 343.002512 
L 295.978909 343.049647 
L 286.219636 338.346533 
L 276.460364 331.825389 
L 266.701091 319.571434 
L 256.941818 317.151842 
L 247.182545 308.284275 
L 237.423273 297.058366 
L 227.664 286.345886 
L 217.904727 286.397719 
L 208.145455 274.281641 
L 198.386182 274.237154 
L 188.626909 274.575488 
L 178.867636 280.952702 
L 169.108364 296.204794 
L 159.349091 314.179052 
L 149.589818 330.751341 
L 139.830545 329.895669 
L 130.071273 338.116547 
L 120.312 338.645245 
L 110.552727 323.948245 
L 100.793455 330.911259 
L 91.034182 328.134881 
L 81.274909 316.063234 
L 71.515636 308.336722 
L 61.756364 298.095303 
L 51.997091 287.16183 
L 42.237818 275.337751 
L 32.478545 263.682531 
L 22.719273 263.461757 
L 12.96 254.34023 
z
" style="fill:#0a9396;"/>
   </g>
   <g id="PolyCollection_4">
    <path clip-path="url(#p8de6a2e26a)" d="M 12.96 129.301383 
L 12.96 254.34023 
L 22.719273 263.461757 
L 32.478545 263.682531 
L 42.237818 275.337751 
L 51.997091 287.16183 
L 61.756364 298.095303 
L 71.515636 308.336722 
L 81.274909 316.063234 
L 91.034182 328.134881 
L 100.793455 330.911259 
L 110.552727 323.948245 
L 120.312 338.645245 
L 130.071273 338.116547 
L 139.830545 329.895669 
L 149.589818 330.751341 
L 159.349091 314.179052 
L 169.108364 296.204794 
L 178.867636 280.952702 
L 188.626909 274.575488 
L 198.386182 274.237154 
L 208.145455 274.281641 
L 217.904727 286.397719 
L 227.664 286.345886 
L 237.423273 297.058366 
L 247.182545 308.284275 
L 256.941818 317.151842 
L 266.701091 319.571434 
L 276.460364 331.825389 
L 286.219636 338.346533 
L 295.978909 343.049647 
L 305.738182 343.002512 
L 315.497455 343.452288 
L 325.256727 343.525089 
L 335.016 346.785591 
L 344.775273 345.759496 
L 354.534545 349.478857 
L 364.293818 344.847341 
L 374.053091 336.674715 
L 383.812364 340.331733 
L 393.571636 342.834535 
L 403.330909 345.751871 
L 413.090182 344.683804 
L 422.849455 343.612176 
L 432.608727 348.085743 
L 442.368 340.530829 
L 452.127273 341.928506 
L 461.886545 341.329511 
L 471.645818 340.799883 
L 481.405091 332.98949 
L 491.164364 326.278888 
L 500.923636 326.870421 
L 510.682909 331.267972 
L 520.442182 328.134741 
L 530.201455 323.399917 
L 539.960727 316.139802 
L 549.72 311.287628 
L 549.72 160.508325 
L 549.72 160.508325 
L 539.960727 163.824766 
L 530.201455 163.102626 
L 520.442182 165.240752 
L 510.682909 164.82071 
L 500.923636 169.234987 
L 491.164364 171.994513 
L 481.405091 176.401082 
L 471.645818 181.483057 
L 461.886545 179.759435 
L 452.127273 191.94988 
L 442.368 190.973893 
L 432.608727 191.393761 
L 422.849455 191.47578 
L 413.090182 190.110652 
L 403.330909 190.737214 
L 393.571636 189.598224 
L 383.812364 189.239287 
L 374.053091 190.601864 
L 364.293818 188.702698 
L 354.534545 189.952625 
L 344.775273 188.740641 
L 335.016 188.007842 
L 325.256727 190.987848 
L 315.497455 191.793766 
L 305.738182 190.797492 
L 295.978909 190.257614 
L 286.219636 189.014719 
L 276.460364 188.836435 
L 266.701091 189.121112 
L 256.941818 185.093561 
L 247.182545 181.690421 
L 237.423273 177.097246 
L 227.664 178.908422 
L 217.904727 178.45741 
L 208.145455 181.478034 
L 198.386182 176.662625 
L 188.626909 170.607485 
L 178.867636 165.203412 
L 169.108364 163.532649 
L 159.349091 168.693912 
L 149.589818 169.736241 
L 139.830545 167.200934 
L 130.071273 166.890325 
L 120.312 163.721735 
L 110.552727 157.578071 
L 100.793455 155.382652 
L 91.034182 157.61472 
L 81.274909 157.344525 
L 71.515636 157.416242 
L 61.756364 161.826849 
L 51.997091 153.026991 
L 42.237818 143.894741 
L 32.478545 136.086743 
L 22.719273 135.253115 
L 12.96 129.301383 
z
" style="fill:#94d2bd;"/>
   </g>
   <g id="PolyCollection_5">
    <path clip-path="url(#p8de6a2e26a)" d="M 12.96 96.025276 
L 12.96 129.301383 
L 22.719273 135.253115 
L 32.478545 136.086743 
L 42.237818 143.894741 
L 51.997091 153.026991 
L 61.756364 161.826849 
L 71.515636 157.416242 
L 81.274909 157.344525 
L 91.034182 157.61472 
L 100.793455 155.382652 
L 110.552727 157.578071 
L 120.312 163.721735 
L 130.071273 166.890325 
L 139.830545 167.200934 
L 149.589818 169.736241 
L 159.349091 168.693912 
L 169.108364 163.532649 
L 178.867636 165.203412 
L 188.626909 170.607485 
L 198.386182 176.662625 
L 208.145455 181.478034 
L 217.904727 178.45741 
L 227.664 178.908422 
L 237.423273 177.097246 
L 247.182545 181.690421 
L 256.941818 185.093561 
L 266.701091 189.121112 
L 276.460364 188.836435 
L 286.219636 189.014719 
L 295.978909 190.257614 
L 305.738182 190.797492 
L 315.497455 191.793766 
L 325.256727 190.987848 
L 335.016 188.007842 
L 344.775273 188.740641 
L 354.534545 189.952625 
L 364.293818 188.702698 
L 374.053091 190.601864 
L 383.812364 189.239287 
L 393.571636 189.598224 
L 403.330909 190.737214 
L 413.090182 190.110652 
L 422.849455 191.47578 
L 432.608727 191.393761 
L 442.368 190.973893 
L 452.127273 191.94988 
L 461.886545 179.759435 
L 471.645818 181.483057 
L 481.405091 176.401082 
L 491.164364 171.994513 
L 500.923636 169.234987 
L 510.682909 164.82071 
L 520.442182 165.240752 
L 530.201455 163.102626 
L 539.960727 163.824766 
L 549.72 160.508325 
L 549.72 123.091469 
L 549.72 123.091469 
L 539.960727 121.143025 
L 530.201455 121.146398 
L 520.442182 122.988776 
L 510.682909 124.686717 
L 500.923636 126.608677 
L 491.164364 127.530425 
L 481.405091 128.606605 
L 471.645818 129.639515 
L 461.886545 130.608257 
L 452.127273 132.11406 
L 442.368 131.291858 
L 432.608727 130.531203 
L 422.849455 130.324614 
L 413.090182 130.198578 
L 403.330909 131.256119 
L 393.571636 131.35714 
L 383.812364 133.661215 
L 374.053091 136.808383 
L 364.293818 135.962173 
L 354.534545 136.612838 
L 344.775273 136.391462 
L 335.016 135.580963 
L 325.256727 137.294164 
L 315.497455 138.084145 
L 305.738182 137.544619 
L 295.978909 137.192621 
L 286.219636 135.799431 
L 276.460364 135.206026 
L 266.701091 135.837066 
L 256.941818 134.03031 
L 247.182545 133.194385 
L 237.423273 132.39494 
L 227.664 134.078461 
L 217.904727 133.741065 
L 208.145455 134.454388 
L 198.386182 131.929415 
L 188.626909 128.059552 
L 178.867636 124.046198 
L 169.108364 122.856144 
L 159.349091 120.751348 
L 149.589818 120.008087 
L 139.830545 120.313031 
L 130.071273 118.706825 
L 120.312 116.547481 
L 110.552727 114.780038 
L 100.793455 111.246499 
L 91.034182 109.522168 
L 81.274909 107.225599 
L 71.515636 104.715322 
L 61.756364 101.99284 
L 51.997091 98.087866 
L 42.237818 97.102618 
L 32.478545 96.16687 
L 22.719273 96.341437 
L 12.96 96.025276 
z
" style="fill:#e9d8a6;"/>
   </g>
   <g id="PolyCollection_6">
    <path clip-path="url(#p8de6a2e26a)" d="M 12.96 82.6224 
L 12.96 96.025276 
L 22.719273 96.341437 
L 32.478545 96.16687 
L 42.237818 97.102618 
L 51.997091 98.087866 
L 61.756364 101.99284 
L 71.515636 104.715322 
L 81.274909 107.225599 
L 91.034182 109.522168 
L 100.793455 111.246499 
L 110.552727 114.780038 
L 120.312 116.547481 
L 130.071273 118.706825 
L 139.830545 120.313031 
L 149.589818 120.008087 
L 159.349091 120.751348 
L 169.108364 122.856144 
L 178.867636 124.046198 
L 188.626909 128.059552 
L 198.386182 131.929415 
L 208.145455 134.454388 
L 217.904727 133.741065 
L 227.664 134.078461 
L 237.423273 132.39494 
L 247.182545 133.194385 
L 256.941818 134.03031 
L 266.701091 135.837066 
L 276.460364 135.206026 
L 286.219636 135.799431 
L 295.978909 137.192621 
L 305.738182 137.544619 
L 315.497455 138.084145 
L 325.256727 137.294164 
L 335.016 135.580963 
L 344.775273 136.391462 
L 354.534545 136.612838 
L 364.293818 135.962173 
L 374.053091 136.808383 
L 383.812364 133.661215 
L 393.571636 131.35714 
L 403.330909 131.256119 
L 413.090182 130.198578 
L 422.849455 130.324614 
L 432.608727 130.531203 
L 442.368 131.291858 
L 452.127273 132.11406 
L 461.886545 130.608257 
L 471.645818 129.639515 
L 481.405091 128.606605 
L 491.164364 127.530425 
L 500.923636 126.608677 
L 510.682909 124.686717 
L 520.442182 122.988776 
L 530.201455 121.146398 
L 539.960727 121.143025 
L 549.72 123.091469 
L 549.72 82.6224 
L 549.72 82.6224 
L 539.960727 82.6224 
L 530.201455 82.6224 
L 520.442182 82.6224 
L 510.682909 82.6224 
L 500.923636 82.6224 
L 491.164364 82.6224 
L 481.405091 82.6224 
L 471.645818 82.6224 
L 461.886545 82.6224 
L 452.127273 82.6224 
L 442.368 82.6224 
L 432.608727 82.6224 
L 422.849455 82.6224 
L 413.090182 82.6224 
L 403.330909 82.6224 
L 393.571636 82.6224 
L 383.812364 82.6224 
L 374.053091 82.6224 
L 364.293818 82.6224 
L 354.534545 82.6224 
L 344.775273 82.6224 
L 335.016 82.6224 
L 325.256727 82.6224 
L 315.497455 82.6224 
L 305.738182 82.6224 
L 295.978909 82.6224 
L 286.219636 82.6224 
L 276.460364 82.6224 
L 266.701091 82.6224 
L 256.941818 82.6224 
L 247.182545 82.6224 
L 237.423273 82.6224 
L 227.664 82.6224 
L 217.904727 82.6224 
L 208.145455 82.6224 
L 198.386182 82.6224 
L 188.626909 82.6224 
L 178.867636 82.6224 
L 169.108364 82.6224 
L 159.349091 82.6224 
L 149.589818 82.6224 
L 139.830545 82.6224 
L 130.071273 82.6224 
L 120.312 82.6224 
L 110.552727 82.6224 
L 100.793455 82.6224 
L 91.034182 82.6224 
L 81.274909 82.6224 
L 71.515636 82.6224 
L 61.756364 82.6224 
L 51.997091 82.6224 
L 42.237818 82.6224 
L 32.478545 82.6224 
L 22.719273 82.6224 
L 12.96 82.6224 
z
" style="fill:#ee9b00;"/>
   </g>
   <g id="matplotlib.axis_1">
    <g id="xtick_1">
     <g id="line2d_1">
      <defs>
       <path d="M 0 0 
L 0 3.5 
" id="m6c14716090" style="stroke:#000000;stroke-width:0.8;"/>
      </defs>
      <g>
       <use style="stroke:#000000;stroke-width:0.8;" x="61.756364" xlink:href="#m6c14716090" y="544.88"/>
      </g>
     </g>
     <g id="text_1">
      <!-- 1970 -->
      <g transform="translate(48.410114 560.488125)scale(0.12 -0.12)">
       <defs>
        <path d="M 9.578125 49.515625 
L 9.578125 56.25 
Q 19.09375 57.171875 22.84375 59.34375 
Q 26.609375 61.53125 28.46875 69.625 
L 35.40625 69.625 
L 35.40625 0 
L 26.03125 0 
L 26.03125 49.515625 
z
" id="Helvetica-49"/>
        <path d="M 13.28125 16.890625 
Q 13.671875 9.625 18.890625 6.84375 
Q 21.578125 5.375 24.953125 5.375 
Q 31.25 5.375 35.6875 10.625 
Q 40.140625 15.875 42 31.9375 
Q 39.0625 27.296875 34.734375 25.40625 
Q 30.421875 23.53125 25.4375 23.53125 
Q 15.328125 23.53125 9.4375 29.828125 
Q 3.5625 36.140625 3.5625 46.046875 
Q 3.5625 55.5625 9.375 62.78125 
Q 15.1875 70.015625 26.515625 70.015625 
Q 41.796875 70.015625 47.609375 56.25 
Q 50.828125 48.6875 50.828125 37.3125 
Q 50.828125 24.46875 46.96875 14.546875 
Q 40.578125 -1.953125 25.296875 -1.953125 
Q 15.046875 -1.953125 9.71875 3.421875 
Q 4.390625 8.796875 4.390625 16.890625 
z
M 26.609375 31.25 
Q 31.84375 31.25 36.15625 34.6875 
Q 40.484375 38.140625 40.484375 46.734375 
Q 40.484375 54.4375 36.59375 58.21875 
Q 32.71875 62.015625 26.703125 62.015625 
Q 20.265625 62.015625 16.484375 57.6875 
Q 12.703125 53.375 12.703125 46.140625 
Q 12.703125 39.3125 16.015625 35.28125 
Q 19.34375 31.25 26.609375 31.25 
z
" id="Helvetica-57"/>
        <path d="M 52.296875 68.75 
L 52.296875 61.078125 
Q 48.921875 57.8125 43.328125 49.703125 
Q 37.75 41.609375 33.453125 32.234375 
Q 29.203125 23.09375 27 15.578125 
Q 25.59375 10.75 23.34375 0 
L 13.625 0 
Q 16.9375 20.015625 28.265625 39.84375 
Q 34.96875 51.46875 42.328125 59.90625 
L 3.65625 59.90625 
L 3.65625 68.75 
z
" id="Helvetica-55"/>
        <path d="M 27.046875 69.921875 
Q 40.625 69.921875 46.6875 58.734375 
Q 51.375 50.09375 51.375 35.0625 
Q 51.375 20.796875 47.125 11.46875 
Q 40.96875 -1.90625 27 -1.90625 
Q 14.40625 -1.90625 8.25 9.03125 
Q 3.125 18.171875 3.125 33.546875 
Q 3.125 45.453125 6.203125 54 
Q 11.96875 69.921875 27.046875 69.921875 
z
M 26.953125 6.109375 
Q 33.796875 6.109375 37.84375 12.15625 
Q 41.890625 18.21875 41.890625 34.71875 
Q 41.890625 46.625 38.953125 54.3125 
Q 36.03125 62.015625 27.59375 62.015625 
Q 19.828125 62.015625 16.234375 54.703125 
Q 12.640625 47.40625 12.640625 33.203125 
Q 12.640625 22.515625 14.9375 16.015625 
Q 18.453125 6.109375 26.953125 6.109375 
z
" id="Helvetica-48"/>
       </defs>
       <use xlink:href="#Helvetica-49"/>
       <use x="55.615234" xlink:href="#Helvetica-57"/>
       <use x="111.230469" xlink:href="#Helvetica-55"/>
       <use x="166.845703" xlink:href="#Helvetica-48"/>
      </g>
     </g>
    </g>
    <g id="xtick_2">
     <g id="line2d_2">
      <g>
       <use style="stroke:#000000;stroke-width:0.8;" x="159.349091" xlink:href="#m6c14716090" y="544.88"/>
      </g>
     </g>
     <g id="text_2">
      <!-- 1980 -->
      <g transform="translate(146.002841 560.488125)scale(0.12 -0.12)">
       <defs>
        <path d="M 27.203125 40.625 
Q 33.015625 40.625 36.28125 43.875 
Q 39.546875 47.125 39.546875 51.609375 
Q 39.546875 55.515625 36.421875 58.78125 
Q 33.296875 62.0625 26.90625 62.0625 
Q 20.5625 62.0625 17.71875 58.78125 
Q 14.890625 55.515625 14.890625 51.125 
Q 14.890625 46.1875 18.546875 43.40625 
Q 22.21875 40.625 27.203125 40.625 
z
M 27.734375 6 
Q 33.84375 6 37.859375 9.296875 
Q 41.890625 12.59375 41.890625 19.140625 
Q 41.890625 25.921875 37.734375 29.4375 
Q 33.59375 32.953125 27.09375 32.953125 
Q 20.796875 32.953125 16.8125 29.359375 
Q 12.84375 25.78125 12.84375 19.4375 
Q 12.84375 13.96875 16.484375 9.984375 
Q 20.125 6 27.734375 6 
z
M 15.234375 37.25 
Q 11.578125 38.8125 9.515625 40.921875 
Q 5.671875 44.828125 5.671875 51.078125 
Q 5.671875 58.890625 11.328125 64.5 
Q 17 70.125 27.390625 70.125 
Q 37.453125 70.125 43.15625 64.8125 
Q 48.875 59.515625 48.875 52.4375 
Q 48.875 45.90625 45.5625 41.84375 
Q 43.703125 39.546875 39.796875 37.359375 
Q 44.140625 35.359375 46.625 32.765625 
Q 51.265625 27.875 51.265625 20.0625 
Q 51.265625 10.84375 45.0625 4.421875 
Q 38.875 -2 27.546875 -2 
Q 17.328125 -2 10.265625 3.53125 
Q 3.21875 9.078125 3.21875 19.625 
Q 3.21875 25.828125 6.25 30.34375 
Q 9.28125 34.859375 15.234375 37.25 
z
" id="Helvetica-56"/>
       </defs>
       <use xlink:href="#Helvetica-49"/>
       <use x="55.615234" xlink:href="#Helvetica-57"/>
       <use x="111.230469" xlink:href="#Helvetica-56"/>
       <use x="166.845703" xlink:href="#Helvetica-48"/>
      </g>
     </g>
    </g>
    <g id="xtick_3">
     <g id="line2d_3">
      <g>
       <use style="stroke:#000000;stroke-width:0.8;" x="256.941818" xlink:href="#m6c14716090" y="544.88"/>
      </g>
     </g>
     <g id="text_3">
      <!-- 1990 -->
      <g transform="translate(243.595568 560.488125)scale(0.12 -0.12)">
       <use xlink:href="#Helvetica-49"/>
       <use x="55.615234" xlink:href="#Helvetica-57"/>
       <use x="111.230469" xlink:href="#Helvetica-57"/>
       <use x="166.845703" xlink:href="#Helvetica-48"/>
      </g>
     </g>
    </g>
    <g id="xtick_4">
     <g id="line2d_4">
      <g>
       <use style="stroke:#000000;stroke-width:0.8;" x="354.534545" xlink:href="#m6c14716090" y="544.88"/>
      </g>
     </g>
     <g id="text_4">
      <!-- 2000 -->
      <g transform="translate(341.188295 560.488125)scale(0.12 -0.12)">
       <defs>
        <path d="M 3.125 0 
Q 3.609375 9.03125 6.859375 15.71875 
Q 10.109375 22.40625 19.53125 27.875 
L 28.90625 33.296875 
Q 35.203125 36.96875 37.75 39.546875 
Q 41.75 43.609375 41.75 48.828125 
Q 41.75 54.9375 38.078125 58.515625 
Q 34.421875 62.109375 28.328125 62.109375 
Q 19.28125 62.109375 15.828125 55.28125 
Q 13.96875 51.609375 13.765625 45.125 
L 4.828125 45.125 
Q 4.984375 54.25 8.203125 60.015625 
Q 13.921875 70.171875 28.375 70.171875 
Q 40.375 70.171875 45.921875 63.671875 
Q 51.46875 57.171875 51.46875 49.21875 
Q 51.46875 40.828125 45.5625 34.859375 
Q 42.140625 31.390625 33.296875 26.46875 
L 26.609375 22.75 
Q 21.828125 20.125 19.09375 17.71875 
Q 14.203125 13.484375 12.9375 8.296875 
L 51.125 8.296875 
L 51.125 0 
L 3.125 0 
z
" id="Helvetica-50"/>
       </defs>
       <use xlink:href="#Helvetica-50"/>
       <use x="55.615234" xlink:href="#Helvetica-48"/>
       <use x="111.230469" xlink:href="#Helvetica-48"/>
       <use x="166.845703" xlink:href="#Helvetica-48"/>
      </g>
     </g>
    </g>
    <g id="xtick_5">
     <g id="line2d_5">
      <g>
       <use style="stroke:#000000;stroke-width:0.8;" x="452.127273" xlink:href="#m6c14716090" y="544.88"/>
      </g>
     </g>
     <g id="text_5">
      <!-- 2010 -->
      <g transform="translate(438.781023 560.488125)scale(0.12 -0.12)">
       <use xlink:href="#Helvetica-50"/>
       <use x="55.615234" xlink:href="#Helvetica-48"/>
       <use x="111.230469" xlink:href="#Helvetica-49"/>
       <use x="166.845703" xlink:href="#Helvetica-48"/>
      </g>
     </g>
    </g>
    <g id="xtick_6">
     <g id="line2d_6">
      <g>
       <use style="stroke:#000000;stroke-width:0.8;" x="549.72" xlink:href="#m6c14716090" y="544.88"/>
      </g>
     </g>
     <g id="text_6">
      <!-- 2020 -->
      <g transform="translate(536.37375 560.488125)scale(0.12 -0.12)">
       <use xlink:href="#Helvetica-50"/>
       <use x="55.615234" xlink:href="#Helvetica-48"/>
       <use x="111.230469" xlink:href="#Helvetica-50"/>
       <use x="166.845703" xlink:href="#Helvetica-48"/>
      </g>
     </g>
    </g>
   </g>
   <g id="patch_3">
    <path d="M 12.96 544.88 
L 549.72 544.88 
" style="fill:none;stroke:#000000;stroke-linecap:square;stroke-linejoin:miter;stroke-width:0.8;"/>
   </g>
   <g id="text_7">
    <!-- Oil Production Proportion by Regions -->
    <g transform="translate(12.96 21.151488)scale(0.144 -0.144)">
     <defs>
      <path d="M 38.578125 73.6875 
Q 57.5625 73.6875 66.703125 61.46875 
Q 73.828125 51.953125 73.828125 37.109375 
Q 73.828125 21.046875 65.671875 10.40625 
Q 56.109375 -2.09375 38.375 -2.09375 
Q 21.828125 -2.09375 12.359375 8.84375 
Q 3.90625 19.390625 3.90625 35.5 
Q 3.90625 50.046875 11.140625 60.40625 
Q 20.40625 73.6875 38.578125 73.6875 
z
M 39.546875 6.59375 
Q 52.390625 6.59375 58.125 15.796875 
Q 63.875 25 63.875 36.96875 
Q 63.875 49.609375 57.25 57.328125 
Q 50.640625 65.046875 39.15625 65.046875 
Q 28.03125 65.046875 21 57.390625 
Q 13.96875 49.75 13.96875 34.859375 
Q 13.96875 22.953125 20 14.765625 
Q 26.03125 6.59375 39.546875 6.59375 
z
M 38.875 73.6875 
z
" id="Helvetica-79"/>
      <path d="M 6.453125 52.046875 
L 15.375 52.046875 
L 15.375 0 
L 6.453125 0 
z
M 6.453125 71.734375 
L 15.375 71.734375 
L 15.375 61.765625 
L 6.453125 61.765625 
z
" id="Helvetica-105"/>
      <path d="M 6.6875 71.734375 
L 15.484375 71.734375 
L 15.484375 0 
L 6.6875 0 
z
" id="Helvetica-108"/>
      <path id="Helvetica-32"/>
      <path d="M 8.546875 71.734375 
L 40.828125 71.734375 
Q 50.390625 71.734375 56.25 66.328125 
Q 62.109375 60.9375 62.109375 51.171875 
Q 62.109375 42.78125 56.875 36.546875 
Q 51.65625 30.328125 40.828125 30.328125 
L 18.265625 30.328125 
L 18.265625 0 
L 8.546875 0 
z
M 52.296875 51.125 
Q 52.296875 59.03125 46.4375 61.859375 
Q 43.21875 63.375 37.59375 63.375 
L 18.265625 63.375 
L 18.265625 38.53125 
L 37.59375 38.53125 
Q 44.140625 38.53125 48.21875 41.3125 
Q 52.296875 44.09375 52.296875 51.125 
z
" id="Helvetica-80"/>
      <path d="M 6.6875 52.296875 
L 15.046875 52.296875 
L 15.046875 43.265625 
Q 16.0625 45.90625 20.0625 49.6875 
Q 24.078125 53.46875 29.296875 53.46875 
Q 29.546875 53.46875 30.125 53.421875 
Q 30.71875 53.375 32.125 53.21875 
L 32.125 43.953125 
Q 31.34375 44.09375 30.6875 44.140625 
Q 30.03125 44.1875 29.25 44.1875 
Q 22.609375 44.1875 19.046875 39.90625 
Q 15.484375 35.640625 15.484375 30.078125 
L 15.484375 0 
L 6.6875 0 
z
" id="Helvetica-114"/>
      <path d="M 27.203125 5.671875 
Q 35.9375 5.671875 39.1875 12.28125 
Q 42.4375 18.890625 42.4375 27 
Q 42.4375 34.328125 40.09375 38.921875 
Q 36.375 46.140625 27.296875 46.140625 
Q 19.234375 46.140625 15.578125 39.984375 
Q 11.921875 33.84375 11.921875 25.140625 
Q 11.921875 16.796875 15.578125 11.234375 
Q 19.234375 5.671875 27.203125 5.671875 
z
M 27.546875 53.8125 
Q 37.640625 53.8125 44.625 47.0625 
Q 51.609375 40.328125 51.609375 27.25 
Q 51.609375 14.59375 45.453125 6.34375 
Q 39.3125 -1.90625 26.375 -1.90625 
Q 15.578125 -1.90625 9.21875 5.390625 
Q 2.875 12.703125 2.875 25 
Q 2.875 38.1875 9.5625 46 
Q 16.265625 53.8125 27.546875 53.8125 
z
M 27.25 53.5625 
z
" id="Helvetica-111"/>
      <path d="M 12.015625 25.53125 
Q 12.015625 17.140625 15.578125 11.46875 
Q 19.140625 5.8125 27 5.8125 
Q 33.109375 5.8125 37.03125 11.0625 
Q 40.96875 16.3125 40.96875 26.125 
Q 40.96875 36.03125 36.90625 40.796875 
Q 32.859375 45.5625 26.90625 45.5625 
Q 20.265625 45.5625 16.140625 40.484375 
Q 12.015625 35.40625 12.015625 25.53125 
z
M 25.25 53.21875 
Q 31.25 53.21875 35.296875 50.6875 
Q 37.640625 49.21875 40.625 45.5625 
L 40.625 71.96875 
L 49.078125 71.96875 
L 49.078125 0 
L 41.15625 0 
L 41.15625 7.28125 
Q 38.09375 2.4375 33.890625 0.28125 
Q 29.6875 -1.859375 24.265625 -1.859375 
Q 15.53125 -1.859375 9.125 5.484375 
Q 2.734375 12.84375 2.734375 25.046875 
Q 2.734375 36.46875 8.5625 44.84375 
Q 14.40625 53.21875 25.25 53.21875 
z
" id="Helvetica-100"/>
      <path d="M 15.234375 52.296875 
L 15.234375 17.578125 
Q 15.234375 13.578125 16.5 11.03125 
Q 18.84375 6.34375 25.25 6.34375 
Q 34.421875 6.34375 37.75 14.546875 
Q 39.546875 18.953125 39.546875 26.609375 
L 39.546875 52.296875 
L 48.34375 52.296875 
L 48.34375 0 
L 40.046875 0 
L 40.140625 7.71875 
Q 38.421875 4.734375 35.890625 2.6875 
Q 30.859375 -1.421875 23.6875 -1.421875 
Q 12.5 -1.421875 8.453125 6.0625 
Q 6.25 10.0625 6.25 16.75 
L 6.25 52.296875 
z
M 27.296875 53.5625 
z
" id="Helvetica-117"/>
      <path d="M 26.609375 53.8125 
Q 35.453125 53.8125 40.984375 49.515625 
Q 46.53125 45.21875 47.65625 34.71875 
L 39.109375 34.71875 
Q 38.328125 39.546875 35.546875 42.75 
Q 32.765625 45.953125 26.609375 45.953125 
Q 18.21875 45.953125 14.59375 37.75 
Q 12.25 32.421875 12.25 24.609375 
Q 12.25 16.75 15.5625 11.375 
Q 18.890625 6 26.03125 6 
Q 31.5 6 34.6875 9.34375 
Q 37.890625 12.703125 39.109375 18.5 
L 47.65625 18.5 
Q 46.1875 8.109375 40.328125 3.296875 
Q 34.46875 -1.515625 25.34375 -1.515625 
Q 15.09375 -1.515625 8.984375 5.984375 
Q 2.875 13.484375 2.875 24.703125 
Q 2.875 38.484375 9.5625 46.140625 
Q 16.265625 53.8125 26.609375 53.8125 
z
M 25.25 53.5625 
z
" id="Helvetica-99"/>
      <path d="M 8.203125 66.890625 
L 17.09375 66.890625 
L 17.09375 52.296875 
L 25.4375 52.296875 
L 25.4375 45.125 
L 17.09375 45.125 
L 17.09375 10.984375 
Q 17.09375 8.25 18.953125 7.328125 
Q 19.96875 6.78125 22.359375 6.78125 
Q 23 6.78125 23.734375 6.8125 
Q 24.46875 6.84375 25.4375 6.9375 
L 25.4375 0 
Q 23.921875 -0.4375 22.28125 -0.625 
Q 20.65625 -0.828125 18.75 -0.828125 
Q 12.59375 -0.828125 10.390625 2.3125 
Q 8.203125 5.46875 8.203125 10.5 
L 8.203125 45.125 
L 1.125 45.125 
L 1.125 52.296875 
L 8.203125 52.296875 
z
" id="Helvetica-116"/>
      <path d="M 6.453125 52.296875 
L 14.796875 52.296875 
L 14.796875 44.875 
Q 18.5 49.46875 22.65625 51.46875 
Q 26.8125 53.46875 31.890625 53.46875 
Q 43.015625 53.46875 46.921875 45.703125 
Q 49.078125 41.453125 49.078125 33.546875 
L 49.078125 0 
L 40.140625 0 
L 40.140625 32.953125 
Q 40.140625 37.75 38.71875 40.671875 
Q 36.375 45.5625 30.21875 45.5625 
Q 27.09375 45.5625 25.09375 44.921875 
Q 21.484375 43.84375 18.75 40.625 
Q 16.546875 38.03125 15.890625 35.265625 
Q 15.234375 32.515625 15.234375 27.390625 
L 15.234375 0 
L 6.453125 0 
z
M 27.09375 53.5625 
z
" id="Helvetica-110"/>
      <path d="M 28.515625 5.90625 
Q 34.671875 5.90625 38.75 11.0625 
Q 42.828125 16.21875 42.828125 26.46875 
Q 42.828125 32.71875 41.015625 37.203125 
Q 37.59375 45.84375 28.515625 45.84375 
Q 19.390625 45.84375 16.015625 36.71875 
Q 14.203125 31.84375 14.203125 24.3125 
Q 14.203125 18.265625 16.015625 14.015625 
Q 19.4375 5.90625 28.515625 5.90625 
z
M 5.765625 52.046875 
L 14.3125 52.046875 
L 14.3125 45.125 
Q 16.9375 48.6875 20.0625 50.640625 
Q 24.515625 53.5625 30.515625 53.5625 
Q 39.40625 53.5625 45.609375 46.75 
Q 51.8125 39.9375 51.8125 27.296875 
Q 51.8125 10.203125 42.875 2.875 
Q 37.203125 -1.765625 29.6875 -1.765625 
Q 23.78125 -1.765625 19.78125 0.828125 
Q 17.4375 2.296875 14.546875 5.859375 
L 14.546875 -20.84375 
L 5.765625 -20.84375 
z
" id="Helvetica-112"/>
      <path d="M 5.765625 71.96875 
L 14.3125 71.96875 
L 14.3125 45.953125 
Q 17.1875 49.703125 21.1875 51.671875 
Q 25.203125 53.65625 29.890625 53.65625 
Q 39.65625 53.65625 45.734375 46.9375 
Q 51.8125 40.234375 51.8125 27.15625 
Q 51.8125 14.75 45.796875 6.546875 
Q 39.796875 -1.65625 29.15625 -1.65625 
Q 23.1875 -1.65625 19.09375 1.21875 
Q 16.65625 2.9375 13.875 6.6875 
L 13.875 0 
L 5.765625 0 
z
M 28.609375 6.109375 
Q 35.75 6.109375 39.28125 11.765625 
Q 42.828125 17.4375 42.828125 26.703125 
Q 42.828125 34.96875 39.28125 40.375 
Q 35.75 45.796875 28.859375 45.796875 
Q 22.859375 45.796875 18.328125 41.359375 
Q 13.8125 36.921875 13.8125 26.703125 
Q 13.8125 19.34375 15.671875 14.75 
Q 19.140625 6.109375 28.609375 6.109375 
z
" id="Helvetica-98"/>
      <path d="M 39.109375 52.296875 
L 48.828125 52.296875 
Q 46.96875 47.265625 40.578125 29.34375 
Q 35.796875 15.875 32.5625 7.375 
Q 24.953125 -12.640625 21.828125 -17.03125 
Q 18.703125 -21.4375 11.078125 -21.4375 
Q 9.234375 -21.4375 8.234375 -21.28125 
Q 7.234375 -21.140625 5.765625 -20.75 
L 5.765625 -12.75 
Q 8.0625 -13.375 9.078125 -13.515625 
Q 10.109375 -13.671875 10.890625 -13.671875 
Q 13.328125 -13.671875 14.46875 -12.859375 
Q 15.625 -12.0625 16.40625 -10.890625 
Q 16.65625 -10.5 18.15625 -6.875 
Q 19.671875 -3.265625 20.359375 -1.515625 
L 1.03125 52.296875 
L 10.984375 52.296875 
L 25 9.71875 
z
M 24.953125 53.5625 
z
" id="Helvetica-121"/>
      <path d="M 40.96875 38.875 
Q 47.796875 38.875 51.78125 41.609375 
Q 55.765625 44.34375 55.765625 51.46875 
Q 55.765625 59.125 50.203125 61.921875 
Q 47.21875 63.375 42.234375 63.375 
L 18.5 63.375 
L 18.5 38.875 
z
M 8.796875 71.734375 
L 42 71.734375 
Q 50.203125 71.734375 55.515625 69.34375 
Q 65.625 64.75 65.625 52.390625 
Q 65.625 45.953125 62.953125 41.84375 
Q 60.296875 37.75 55.515625 35.25 
Q 59.71875 33.546875 61.84375 30.765625 
Q 63.96875 27.984375 64.203125 21.734375 
L 64.546875 12.109375 
Q 64.703125 8.015625 65.234375 6 
Q 66.109375 2.59375 68.359375 1.609375 
L 68.359375 0 
L 56.453125 0 
Q 55.953125 0.921875 55.65625 2.390625 
Q 55.375 3.859375 55.171875 8.0625 
L 54.59375 20.015625 
Q 54.25 27.046875 49.359375 29.4375 
Q 46.578125 30.765625 40.625 30.765625 
L 18.5 30.765625 
L 18.5 0 
L 8.796875 0 
z
" id="Helvetica-82"/>
      <path d="M 28.21875 53.46875 
Q 33.796875 53.46875 39.015625 50.859375 
Q 44.234375 48.25 46.96875 44.09375 
Q 49.609375 40.140625 50.484375 34.859375 
Q 51.265625 31.25 51.265625 23.34375 
L 12.9375 23.34375 
Q 13.1875 15.375 16.703125 10.5625 
Q 20.21875 5.765625 27.59375 5.765625 
Q 34.46875 5.765625 38.578125 10.296875 
Q 40.921875 12.9375 41.890625 16.40625 
L 50.53125 16.40625 
Q 50.203125 13.53125 48.265625 9.984375 
Q 46.34375 6.453125 43.953125 4.203125 
Q 39.9375 0.296875 34.03125 -1.078125 
Q 30.859375 -1.859375 26.859375 -1.859375 
Q 17.09375 -1.859375 10.296875 5.25 
Q 3.515625 12.359375 3.515625 25.140625 
Q 3.515625 37.75 10.34375 45.609375 
Q 17.1875 53.46875 28.21875 53.46875 
z
M 42.234375 30.328125 
Q 41.703125 36.03125 39.75 39.453125 
Q 36.140625 45.796875 27.6875 45.796875 
Q 21.625 45.796875 17.515625 41.421875 
Q 13.421875 37.0625 13.1875 30.328125 
z
M 27.390625 53.5625 
z
" id="Helvetica-101"/>
      <path d="M 24.90625 53.21875 
Q 31.0625 53.21875 35.640625 50.203125 
Q 38.140625 48.484375 40.71875 45.21875 
L 40.71875 51.8125 
L 48.828125 51.8125 
L 48.828125 4.25 
Q 48.828125 -5.71875 45.90625 -11.46875 
Q 40.4375 -22.125 25.25 -22.125 
Q 16.796875 -22.125 11.03125 -18.328125 
Q 5.28125 -14.546875 4.59375 -6.5 
L 13.53125 -6.5 
Q 14.15625 -10.015625 16.0625 -11.921875 
Q 19.046875 -14.84375 25.4375 -14.84375 
Q 35.546875 -14.84375 38.671875 -7.71875 
Q 40.53125 -3.515625 40.375 7.28125 
Q 37.75 3.265625 34.03125 1.3125 
Q 30.328125 -0.640625 24.21875 -0.640625 
Q 15.71875 -0.640625 9.34375 5.390625 
Q 2.984375 11.421875 2.984375 25.34375 
Q 2.984375 38.484375 9.40625 45.84375 
Q 15.828125 53.21875 24.90625 53.21875 
z
M 40.71875 26.375 
Q 40.71875 36.078125 36.71875 40.765625 
Q 32.71875 45.453125 26.515625 45.453125 
Q 17.234375 45.453125 13.8125 36.765625 
Q 12.015625 32.125 12.015625 24.609375 
Q 12.015625 15.765625 15.59375 11.15625 
Q 19.1875 6.546875 25.25 6.546875 
Q 34.71875 6.546875 38.578125 15.09375 
Q 40.71875 19.921875 40.71875 26.375 
z
M 25.921875 53.5625 
z
" id="Helvetica-103"/>
      <path d="M 11.671875 16.40625 
Q 12.0625 12.015625 13.875 9.671875 
Q 17.1875 5.421875 25.390625 5.421875 
Q 30.28125 5.421875 33.984375 7.546875 
Q 37.703125 9.671875 37.703125 14.109375 
Q 37.703125 17.484375 34.71875 19.234375 
Q 32.8125 20.3125 27.203125 21.734375 
L 20.21875 23.484375 
Q 13.53125 25.140625 10.359375 27.203125 
Q 4.6875 30.765625 4.6875 37.0625 
Q 4.6875 44.484375 10.03125 49.0625 
Q 15.375 53.65625 24.421875 53.65625 
Q 36.234375 53.65625 41.453125 46.734375 
Q 44.734375 42.328125 44.625 37.25 
L 36.328125 37.25 
Q 36.078125 40.234375 34.234375 42.671875 
Q 31.203125 46.140625 23.734375 46.140625 
Q 18.75 46.140625 16.1875 44.234375 
Q 13.625 42.328125 13.625 39.203125 
Q 13.625 35.796875 17 33.734375 
Q 18.953125 32.515625 22.75 31.59375 
L 28.5625 30.171875 
Q 38.03125 27.875 41.265625 25.734375 
Q 46.390625 22.359375 46.390625 15.140625 
Q 46.390625 8.15625 41.09375 3.078125 
Q 35.796875 -2 24.953125 -2 
Q 13.28125 -2 8.421875 3.296875 
Q 3.5625 8.59375 3.21875 16.40625 
z
M 24.65625 53.5625 
z
" id="Helvetica-115"/>
     </defs>
     <use xlink:href="#Helvetica-79"/>
     <use x="77.783203" xlink:href="#Helvetica-105"/>
     <use x="100" xlink:href="#Helvetica-108"/>
     <use x="122.216797" xlink:href="#Helvetica-32"/>
     <use x="150" xlink:href="#Helvetica-80"/>
     <use x="216.699219" xlink:href="#Helvetica-114"/>
     <use x="250" xlink:href="#Helvetica-111"/>
     <use x="305.615234" xlink:href="#Helvetica-100"/>
     <use x="361.230469" xlink:href="#Helvetica-117"/>
     <use x="416.845703" xlink:href="#Helvetica-99"/>
     <use x="466.845703" xlink:href="#Helvetica-116"/>
     <use x="494.628906" xlink:href="#Helvetica-105"/>
     <use x="516.845703" xlink:href="#Helvetica-111"/>
     <use x="572.460938" xlink:href="#Helvetica-110"/>
     <use x="628.076172" xlink:href="#Helvetica-32"/>
     <use x="655.859375" xlink:href="#Helvetica-80"/>
     <use x="722.558594" xlink:href="#Helvetica-114"/>
     <use x="755.859375" xlink:href="#Helvetica-111"/>
     <use x="811.474609" xlink:href="#Helvetica-112"/>
     <use x="867.089844" xlink:href="#Helvetica-111"/>
     <use x="922.705078" xlink:href="#Helvetica-114"/>
     <use x="956.005859" xlink:href="#Helvetica-116"/>
     <use x="983.789062" xlink:href="#Helvetica-105"/>
     <use x="1006.005859" xlink:href="#Helvetica-111"/>
     <use x="1061.621094" xlink:href="#Helvetica-110"/>
     <use x="1117.236328" xlink:href="#Helvetica-32"/>
     <use x="1145.019531" xlink:href="#Helvetica-98"/>
     <use x="1200.634766" xlink:href="#Helvetica-121"/>
     <use x="1250.634766" xlink:href="#Helvetica-32"/>
     <use x="1278.417969" xlink:href="#Helvetica-82"/>
     <use x="1350.634766" xlink:href="#Helvetica-101"/>
     <use x="1406.25" xlink:href="#Helvetica-103"/>
     <use x="1461.865234" xlink:href="#Helvetica-105"/>
     <use x="1484.082031" xlink:href="#Helvetica-111"/>
     <use x="1539.697266" xlink:href="#Helvetica-110"/>
     <use x="1595.3125" xlink:href="#Helvetica-115"/>
    </g>
   </g>
   <g id="legend_1">
    <g id="patch_4">
     <path d="M 17.76 48.966623 
L 41.76 48.966623 
L 41.76 40.566623 
L 17.76 40.566623 
z
" style="fill:#001219;"/>
    </g>
    <g id="text_8">
     <!-- total NA -->
     <g transform="translate(51.36 48.966623)scale(0.12 -0.12)">
      <defs>
       <path d="M 13.1875 13.921875 
Q 13.1875 10.109375 15.96875 7.90625 
Q 18.75 5.71875 22.5625 5.71875 
Q 27.203125 5.71875 31.546875 7.859375 
Q 38.875 11.421875 38.875 19.53125 
L 38.875 26.609375 
Q 37.25 25.59375 34.703125 24.90625 
Q 32.171875 24.21875 29.734375 23.921875 
L 24.421875 23.25 
Q 19.625 22.609375 17.234375 21.234375 
Q 13.1875 18.953125 13.1875 13.921875 
z
M 34.46875 31.6875 
Q 37.5 32.078125 38.53125 34.234375 
Q 39.109375 35.40625 39.109375 37.59375 
Q 39.109375 42.09375 35.90625 44.109375 
Q 32.71875 46.140625 26.765625 46.140625 
Q 19.875 46.140625 17 42.4375 
Q 15.375 40.375 14.890625 36.328125 
L 6.6875 36.328125 
Q 6.9375 46 12.96875 49.78125 
Q 19 53.5625 26.953125 53.5625 
Q 36.1875 53.5625 41.9375 50.046875 
Q 47.65625 46.53125 47.65625 39.109375 
L 47.65625 8.984375 
Q 47.65625 7.625 48.21875 6.78125 
Q 48.78125 5.953125 50.59375 5.953125 
Q 51.171875 5.953125 51.90625 6.03125 
Q 52.640625 6.109375 53.46875 6.25 
L 53.46875 -0.25 
Q 51.421875 -0.828125 50.34375 -0.96875 
Q 49.265625 -1.125 47.40625 -1.125 
Q 42.875 -1.125 40.828125 2.09375 
Q 39.75 3.8125 39.3125 6.9375 
Q 36.625 3.421875 31.59375 0.828125 
Q 26.5625 -1.765625 20.515625 -1.765625 
Q 13.234375 -1.765625 8.609375 2.65625 
Q 4 7.078125 4 13.71875 
Q 4 21 8.546875 25 
Q 13.09375 29 20.453125 29.9375 
z
M 27.203125 53.5625 
z
" id="Helvetica-97"/>
       <path d="M 7.625 71.734375 
L 19.09375 71.734375 
L 55.328125 13.625 
L 55.328125 71.734375 
L 64.546875 71.734375 
L 64.546875 0 
L 53.65625 0 
L 16.890625 58.0625 
L 16.890625 0 
L 7.625 0 
z
M 35.453125 71.734375 
z
" id="Helvetica-78"/>
       <path d="M 44.4375 29.390625 
L 33.546875 61.078125 
L 21.96875 29.390625 
z
M 28.46875 71.734375 
L 39.453125 71.734375 
L 65.484375 0 
L 54.828125 0 
L 47.5625 21.484375 
L 19.1875 21.484375 
L 11.421875 0 
L 1.46875 0 
z
" id="Helvetica-65"/>
      </defs>
      <use xlink:href="#Helvetica-116"/>
      <use x="27.783203" xlink:href="#Helvetica-111"/>
      <use x="83.398438" xlink:href="#Helvetica-116"/>
      <use x="111.181641" xlink:href="#Helvetica-97"/>
      <use x="166.796875" xlink:href="#Helvetica-108"/>
      <use x="189.013672" xlink:href="#Helvetica-32"/>
      <use x="216.796875" xlink:href="#Helvetica-78"/>
      <use x="289.013672" xlink:href="#Helvetica-65"/>
     </g>
    </g>
    <g id="patch_5">
     <path d="M 17.76 66.075998 
L 41.76 66.075998 
L 41.76 57.675998 
L 17.76 57.675998 
z
" style="fill:#005f73;"/>
    </g>
    <g id="text_9">
     <!-- total CA MA -->
     <g transform="translate(51.36 66.075998)scale(0.12 -0.12)">
      <defs>
       <path d="M 37.84375 73.6875 
Q 51.46875 73.6875 58.984375 66.5 
Q 66.5 59.328125 67.328125 50.203125 
L 57.859375 50.203125 
Q 56.25 57.125 51.4375 61.171875 
Q 46.625 65.234375 37.9375 65.234375 
Q 27.34375 65.234375 20.828125 57.78125 
Q 14.3125 50.34375 14.3125 34.96875 
Q 14.3125 22.359375 20.1875 14.515625 
Q 26.078125 6.6875 37.75 6.6875 
Q 48.484375 6.6875 54.109375 14.9375 
Q 57.078125 19.28125 58.546875 26.375 
L 68.015625 26.375 
Q 66.75 15.046875 59.625 7.375 
Q 51.078125 -1.859375 36.578125 -1.859375 
Q 24.078125 -1.859375 15.578125 5.71875 
Q 4.390625 15.71875 4.390625 36.625 
Q 4.390625 52.484375 12.796875 62.640625 
Q 21.875 73.6875 37.84375 73.6875 
z
M 35.890625 73.6875 
z
" id="Helvetica-67"/>
       <path d="M 7.375 71.734375 
L 21.296875 71.734375 
L 41.890625 11.078125 
L 62.359375 71.734375 
L 76.125 71.734375 
L 76.125 0 
L 66.890625 0 
L 66.890625 42.328125 
Q 66.890625 44.53125 66.984375 49.609375 
Q 67.09375 54.6875 67.09375 60.5 
L 46.625 0 
L 37.015625 0 
L 16.40625 60.5 
L 16.40625 58.296875 
Q 16.40625 55.671875 16.53125 50.265625 
Q 16.65625 44.875 16.65625 42.328125 
L 16.65625 0 
L 7.375 0 
z
" id="Helvetica-77"/>
      </defs>
      <use xlink:href="#Helvetica-116"/>
      <use x="27.783203" xlink:href="#Helvetica-111"/>
      <use x="83.398438" xlink:href="#Helvetica-116"/>
      <use x="111.181641" xlink:href="#Helvetica-97"/>
      <use x="166.796875" xlink:href="#Helvetica-108"/>
      <use x="189.013672" xlink:href="#Helvetica-32"/>
      <use x="216.796875" xlink:href="#Helvetica-67"/>
      <use x="289.013672" xlink:href="#Helvetica-65"/>
      <use x="355.712891" xlink:href="#Helvetica-32"/>
      <use x="383.496094" xlink:href="#Helvetica-77"/>
      <use x="466.796875" xlink:href="#Helvetica-65"/>
     </g>
    </g>
    <g id="patch_6">
     <path d="M 139.378125 48.966623 
L 163.378125 48.966623 
L 163.378125 40.566623 
L 139.378125 40.566623 
z
" style="fill:#0a9396;"/>
    </g>
    <g id="text_10">
     <!-- total CIS -->
     <g transform="translate(172.978125 48.966623)scale(0.12 -0.12)">
      <defs>
       <path d="M 9.8125 71.734375 
L 19.625 71.734375 
L 19.625 0 
L 9.8125 0 
z
" id="Helvetica-73"/>
       <path d="M 13.96875 23.140625 
Q 14.3125 17.046875 16.84375 13.234375 
Q 21.6875 6.109375 33.890625 6.109375 
Q 39.359375 6.109375 43.84375 7.671875 
Q 52.546875 10.6875 52.546875 18.5 
Q 52.546875 24.359375 48.875 26.859375 
Q 45.171875 29.296875 37.25 31.109375 
L 27.546875 33.296875 
Q 18.015625 35.453125 14.0625 38.03125 
Q 7.234375 42.53125 7.234375 51.46875 
Q 7.234375 61.140625 13.921875 67.328125 
Q 20.609375 73.53125 32.859375 73.53125 
Q 44.140625 73.53125 52.015625 68.078125 
Q 59.90625 62.640625 59.90625 50.6875 
L 50.78125 50.6875 
Q 50.046875 56.453125 47.65625 59.515625 
Q 43.21875 65.140625 32.5625 65.140625 
Q 23.96875 65.140625 20.203125 61.515625 
Q 16.453125 57.90625 16.453125 53.125 
Q 16.453125 47.859375 20.84375 45.40625 
Q 23.734375 43.84375 33.890625 41.5 
L 43.953125 39.203125 
Q 51.21875 37.546875 55.171875 34.671875 
Q 62.015625 29.640625 62.015625 20.0625 
Q 62.015625 8.15625 53.34375 3.03125 
Q 44.671875 -2.09375 33.203125 -2.09375 
Q 19.828125 -2.09375 12.25 4.734375 
Q 4.6875 11.53125 4.828125 23.140625 
z
M 33.59375 73.6875 
z
" id="Helvetica-83"/>
      </defs>
      <use xlink:href="#Helvetica-116"/>
      <use x="27.783203" xlink:href="#Helvetica-111"/>
      <use x="83.398438" xlink:href="#Helvetica-116"/>
      <use x="111.181641" xlink:href="#Helvetica-97"/>
      <use x="166.796875" xlink:href="#Helvetica-108"/>
      <use x="189.013672" xlink:href="#Helvetica-32"/>
      <use x="216.796875" xlink:href="#Helvetica-67"/>
      <use x="289.013672" xlink:href="#Helvetica-73"/>
      <use x="316.796875" xlink:href="#Helvetica-83"/>
     </g>
    </g>
    <g id="patch_7">
     <path d="M 139.378125 66.075998 
L 163.378125 66.075998 
L 163.378125 57.675998 
L 139.378125 57.675998 
z
" style="fill:#94d2bd;"/>
    </g>
    <g id="text_11">
     <!-- total MidEast -->
     <g transform="translate(172.978125 66.075998)scale(0.12 -0.12)">
      <defs>
       <path d="M 8.546875 71.734375 
L 60.84375 71.734375 
L 60.84375 62.9375 
L 18.015625 62.9375 
L 18.015625 41.15625 
L 57.625 41.15625 
L 57.625 32.859375 
L 18.015625 32.859375 
L 18.015625 8.546875 
L 61.578125 8.546875 
L 61.578125 0 
L 8.546875 0 
z
M 35.0625 71.734375 
z
" id="Helvetica-69"/>
      </defs>
      <use xlink:href="#Helvetica-116"/>
      <use x="27.783203" xlink:href="#Helvetica-111"/>
      <use x="83.398438" xlink:href="#Helvetica-116"/>
      <use x="111.181641" xlink:href="#Helvetica-97"/>
      <use x="166.796875" xlink:href="#Helvetica-108"/>
      <use x="189.013672" xlink:href="#Helvetica-32"/>
      <use x="216.796875" xlink:href="#Helvetica-77"/>
      <use x="300.097656" xlink:href="#Helvetica-105"/>
      <use x="322.314453" xlink:href="#Helvetica-100"/>
      <use x="377.929688" xlink:href="#Helvetica-69"/>
      <use x="444.628906" xlink:href="#Helvetica-97"/>
      <use x="500.244141" xlink:href="#Helvetica-115"/>
      <use x="550.244141" xlink:href="#Helvetica-116"/>
     </g>
    </g>
    <g id="patch_8">
     <path d="M 266.338125 48.966623 
L 290.338125 48.966623 
L 290.338125 40.566623 
L 266.338125 40.566623 
z
" style="fill:#e9d8a6;"/>
    </g>
    <g id="text_12">
     <!-- total Africa -->
     <g transform="translate(299.938125 48.966623)scale(0.12 -0.12)">
      <defs>
       <path d="M 8.640625 60.25 
Q 8.84375 65.71875 10.546875 68.265625 
Q 13.625 72.75 22.40625 72.75 
Q 23.25 72.75 24.125 72.703125 
Q 25 72.65625 26.125 72.5625 
L 26.125 64.546875 
Q 24.75 64.65625 24.140625 64.671875 
Q 23.53125 64.703125 23 64.703125 
Q 19 64.703125 18.21875 62.625 
Q 17.4375 60.546875 17.4375 52.046875 
L 26.125 52.046875 
L 26.125 45.125 
L 17.328125 45.125 
L 17.328125 0 
L 8.640625 0 
L 8.640625 45.125 
L 1.375 45.125 
L 1.375 52.046875 
L 8.640625 52.046875 
L 8.640625 60.25 
z
" id="Helvetica-102"/>
      </defs>
      <use xlink:href="#Helvetica-116"/>
      <use x="27.783203" xlink:href="#Helvetica-111"/>
      <use x="83.398438" xlink:href="#Helvetica-116"/>
      <use x="111.181641" xlink:href="#Helvetica-97"/>
      <use x="166.796875" xlink:href="#Helvetica-108"/>
      <use x="189.013672" xlink:href="#Helvetica-32"/>
      <use x="216.796875" xlink:href="#Helvetica-65"/>
      <use x="283.496094" xlink:href="#Helvetica-102"/>
      <use x="311.279297" xlink:href="#Helvetica-114"/>
      <use x="344.580078" xlink:href="#Helvetica-105"/>
      <use x="366.796875" xlink:href="#Helvetica-99"/>
      <use x="416.796875" xlink:href="#Helvetica-97"/>
     </g>
    </g>
    <g id="patch_9">
     <path d="M 266.338125 66.075998 
L 290.338125 66.075998 
L 290.338125 57.675998 
L 266.338125 57.675998 
z
" style="fill:#ee9b00;"/>
    </g>
    <g id="text_13">
     <!-- total AsiaPacific -->
     <g transform="translate(299.938125 66.075998)scale(0.12 -0.12)">
      <use xlink:href="#Helvetica-116"/>
      <use x="27.783203" xlink:href="#Helvetica-111"/>
      <use x="83.398438" xlink:href="#Helvetica-116"/>
      <use x="111.181641" xlink:href="#Helvetica-97"/>
      <use x="166.796875" xlink:href="#Helvetica-108"/>
      <use x="189.013672" xlink:href="#Helvetica-32"/>
      <use x="216.796875" xlink:href="#Helvetica-65"/>
      <use x="283.496094" xlink:href="#Helvetica-115"/>
      <use x="333.496094" xlink:href="#Helvetica-105"/>
      <use x="355.712891" xlink:href="#Helvetica-97"/>
      <use x="411.328125" xlink:href="#Helvetica-80"/>
      <use x="478.027344" xlink:href="#Helvetica-97"/>
      <use x="533.642578" xlink:href="#Helvetica-99"/>
      <use x="583.642578" xlink:href="#Helvetica-105"/>
      <use x="605.859375" xlink:href="#Helvetica-102"/>
      <use x="633.642578" xlink:href="#Helvetica-105"/>
      <use x="655.859375" xlink:href="#Helvetica-99"/>
     </g>
    </g>
   </g>
  </g>
 </g>
 <defs>
  <clipPath id="p8de6a2e26a">
   <rect height="462.2576" width="536.76" x="12.96" y="82.6224"/>
  </clipPath>
 </defs>
</svg>
